<?xml version="1.0" encoding="utf-8"?>
<!-- Generator: Adobe Illustrator 27.4.0, SVG Export Plug-In . SVG Version: 6.00 Build 0)  -->
<svg version="1.1" id="Layer_1" xmlns="http://www.w3.org/2000/svg" xmlns:xlink="http://www.w3.org/1999/xlink" x="0px" y="0px"
	 viewBox="0 0 380 70.24" style="enable-background:new 0 0 380 70.24;" xml:space="preserve">
<style type="text/css">
	.st0{fill:none;stroke:#ED2024;stroke-width:0.25;stroke-miterlimit:10;}
	.st1{fill:#FFFFFF;}
</style>
<g>
	<g>
		<path d="M222.06,50.46L197.9,50.5c0.45,6.04,5.07,10.04,11.38,10.03c3.51-0.01,6.64-1.27,8.84-3.8l2.2,2.52
			c-2.58,3.08-6.58,4.73-11.14,4.74c-9.01,0.01-15.16-6.13-15.18-14.69c-0.01-8.57,5.96-14.67,14.09-14.68
			c8.13-0.01,14.01,5.96,14.02,14.64C222.11,49.59,222.06,50.03,222.06,50.46z M197.89,47.59l20.48-0.03
			c-0.5-5.66-4.63-9.6-10.28-9.59C202.49,37.97,198.38,41.93,197.89,47.59z"/>
		<path d="M284.02,50.37l-24.16,0.04c0.45,6.04,5.07,10.04,11.38,10.03c3.51-0.01,6.64-1.27,8.84-3.8l2.2,2.52
			c-2.58,3.08-6.58,4.73-11.14,4.74c-9.01,0.01-15.16-6.13-15.18-14.69c-0.01-8.57,5.96-14.67,14.09-14.68
			c8.13-0.01,14.01,5.96,14.02,14.64C284.08,49.49,284.02,49.93,284.02,50.37z M259.86,47.5l20.48-0.03
			c-0.5-5.66-4.63-9.6-10.28-9.59C264.46,37.88,260.34,41.84,259.86,47.5z"/>
		<path d="M349.51,51.95l0.02,11.83l-3.76,0.01l-0.02-11.83c-5.27-3.78-9.23-10.28-11.95-16.69l4.43-0.01
			c1.92,5.05,5.13,10.51,9.32,13.84c4.26-3.32,7.28-8.83,8.56-13.87l4.59-0.01C358.88,41,355.04,47.44,349.51,51.95z"/>
		<path d="M238.94,38.02c-5.12,0.01-8.76,4.3-8.75,9.81l0.02,16.13l-4.13,0.01l-0.03-15.93c-0.01-7.83,5.45-13.41,12.88-13.42
			c7.43-0.01,12.9,5.55,12.92,13.38l0.02,15.93l-4.13,0.01l-0.02-16.13C247.71,42.29,244.05,38.01,238.94,38.02z"/>
		<path d="M302.69,34.64c-0.6-0.08-1.21-0.12-1.83-0.12c-7.43,0.01-12.89,5.59-12.88,13.42l0.03,15.93l4.13-0.01l-0.02-16.13
			c-0.01-5.51,3.63-9.34,8.75-9.35c0.64,0,1.25,0.02,1.84,0.15L302.69,34.64z"/>
		<path d="M319.6,37.87c3.34-0.01,6.02,1.03,8.2,3.17l0.29,0.28l2.39-2.45l-0.26-0.28c-2.54-2.73-6.26-4.18-10.75-4.17
			c-8.85,0.01-15.26,6.21-15.25,14.73c0.01,8.52,6.43,14.7,15.25,14.68c4.12-0.01,7.98-1.35,10.59-3.69l0.13-0.12l-0.02-11.31
			l-3.66,0.01l0.01,9.68c-1.91,1.33-4.19,1.98-6.95,1.99c-6.62,0.01-11.62-4.82-11.63-11.23C307.96,42.62,312.85,37.88,319.6,37.87z
			"/>
	</g>
	<g>
		<path d="M185.9,39.43l-47.79,0.07c1.75,7.23,9.03,11.64,18.52,11.63c6.6-0.01,11.34-1.85,15.62-5.64l9.62,9.7
			c-5.78,6.16-14.46,9.41-25.68,9.43c-21.53,0.03-35.56-12.57-35.58-29.84c-0.03-17.37,14.19-29.91,33.18-29.94
			c18.29-0.03,32.43,11.39,32.46,30.06C186.24,36.2,186.24,38.19,185.9,39.43z M137.23,30.13l34.38-0.05
			c-1.38-7.24-8.45-12.26-17.15-12.25C145.65,17.84,138.58,22.77,137.23,30.13z"/>
		<rect x="110.82" y="4.92" transform="matrix(1 -1.522559e-03 1.522559e-03 1 -0.0523 0.1718)" width="3.99" height="58.99"/>
		<path d="M17.86,30.04c0.01-3.14-0.15-6.23,1.12-9.19c2.96-6.9,8.26-11.56,15.29-14.26c1.86-0.71,3.82-1.18,6.02-1.42
			c1.05-0.12,1.99-0.17,2.88-0.17c0.35,0,0.69,0.01,1.04,0.02c4.42,0.22,8.5,1.45,12.12,3.63c1.14,0.69,2.22,1.46,3.22,2.29
			c0.1,0.08,0.21,0.17,0.32,0.25l1.49,1.15l1.81-1.44c0.29-0.23,0.58-0.46,0.87-0.69c2.6-1.99,5.5-3.44,8.6-4.31
			c1.56-0.43,2.85-0.68,4.05-0.78l0.27-0.02c0.95-0.08,1.85-0.15,2.73-0.15c2.88,0,5.69,0.48,8.39,1.44
			c4.45,1.57,8.24,4.22,11.26,7.87c2.69,3.24,4.09,7.01,4.95,11.19c0.35,1.7,0.54,3.48,0.54,5.44l0.05,33.03l-14.75,0.02
			l-0.05-34.99c0-1.91-0.34-3.53-1.04-4.96c-1.68-3.43-4.07-5.55-7.73-6.14c-0.6-0.1-1.21-0.14-1.8-0.14
			c-5.26,0.01-9.49,4.09-10.34,9.4c-0.09,0.54-0.13,1.13-0.13,1.75l0.05,35.12l-15.41,0.02l-0.05-35c0-1.88-0.33-3.49-1.02-4.91
			c-1.67-3.45-4.07-5.59-7.76-6.18c-0.59-0.1-1.2-0.14-1.79-0.14c-5.38,0.01-9.46,3.9-10.31,9.26c-0.08,0.51-0.12,1.07-0.12,1.7
			l0.05,35.31l-14.77,0.02L17.86,30.04z"/>
	</g>
</g>
</svg>
